<svg xmlns="http://www.w3.org/2000/svg" version="1.1" xmlns:xlink="http://www.w3.org/1999/xlink" xmlns:svgjs="http://svgjs.com/svgjs" width="1440" height="560" preserveAspectRatio="none" viewBox="0 0 1440 560"><g mask="url(&quot;#SvgjsMask1178&quot;)" fill="none"><rect width="1440" height="560" x="0" y="0" fill="url(#SvgjsLinearGradient1179)"></rect><path d="M1440 0L1136.67 0L1440 87.46z" fill="rgba(255, 255, 255, .1)"></path><path d="M1136.67 0L1440 87.46L1440 128.6L901.94 0z" fill="rgba(255, 255, 255, .075)"></path><path d="M901.94 0L1440 128.6L1440 168.14999999999998L770.2700000000001 0z" fill="rgba(255, 255, 255, .05)"></path><path d="M770.2700000000001 0L1440 168.14999999999998L1440 362.53L670.4900000000001 0z" fill="rgba(255, 255, 255, .025)"></path><path d="M0 560L485.17 560L0 283.51z" fill="rgba(0, 0, 0, .1)"></path><path d="M0 283.51L485.17 560L670.58 560L0 215.88z" fill="rgba(0, 0, 0, .075)"></path><path d="M0 215.88L670.58 560L781.57 560L0 213.68z" fill="rgba(0, 0, 0, .05)"></path><path d="M0 213.68L781.57 560L1090.4 560L0 102.49000000000001z" fill="rgba(0, 0, 0, .025)"></path></g><defs><mask id="SvgjsMask1178"><rect width="1440" height="560" fill="#ffffff"></rect></mask><linearGradient x1="15.28%" y1="-39.29%" x2="84.72%" y2="139.29%" gradientUnits="userSpaceOnUse" id="SvgjsLinearGradient1179"><stop stop-color="rgba(238, 242, 243, 1)" offset="1"></stop><stop stop-color="rgba(142, 158, 171, 1)" offset="1"></stop></linearGradient></defs></svg>