<svg xmlns="http://www.w3.org/2000/svg" version="1.1" xmlns:xlink="http://www.w3.org/1999/xlink" xmlns:svgjs="http://svgjs.com/svgjs" width="1440" height="560" preserveAspectRatio="none" viewBox="0 0 1440 560"><g mask="url(&quot;#SvgjsMask1327&quot;)" fill="none"><g transform="translate(0, 0)" stroke-linecap="round"><path d="M90 153.28 L90 183.28" stroke-width="15" stroke="rgba(203, 180, 237, 1)"></path><path d="M90 205.78 L90 250.78" stroke-width="15" stroke="rgba(208, 209, 209, 1)"></path><path d="M90 273.28 L90 406.72" stroke-width="15" stroke="rgba(208, 209, 209, 1)"></path><path d="M110 204.55 L110 264.55" stroke-width="15" stroke="rgba(208, 209, 209, 1)"></path><path d="M110 287.05 L110 355.45" stroke-width="15" stroke="rgba(203, 180, 237, 1)"></path><path d="M130 123.6 L130 138.6" stroke-width="15" stroke="rgba(208, 209, 209, 1)"></path><path d="M130 161.1 L130 266.1" stroke-width="15" stroke="rgba(142, 158, 171, 1)"></path><path d="M130 288.6 L130 436.39" stroke-width="15" stroke="rgba(208, 209, 209, 1)"></path><path d="M150 152.56 L150 302.56" stroke-width="15" stroke="rgba(142, 158, 171, 1)"></path><path d="M150 325.06 L150 340.06" stroke-width="15" stroke="rgba(208, 209, 209, 1)"></path><path d="M150 362.56 L150 407.44" stroke-width="15" stroke="rgba(203, 180, 237, 1)"></path><path d="M170 235.31 L170 324.69" stroke-width="15" stroke="rgba(203, 180, 237, 1)"></path><path d="M190 82.49 L190 127.49" stroke-width="15" stroke="rgba(208, 209, 209, 1)"></path><path d="M190 149.99 L190 404.99" stroke-width="15" stroke="rgba(142, 158, 171, 1)"></path><path d="M190 427.49 L190 477.51" stroke-width="15" stroke="rgba(203, 180, 237, 1)"></path><path d="M210 65.16 L210 140.16" stroke-width="15" stroke="rgba(208, 209, 209, 1)"></path><path d="M210 162.66 L210 237.66" stroke-width="15" stroke="rgba(203, 180, 237, 1)"></path><path d="M210 260.15999999999997 L210 494.85" stroke-width="15" stroke="rgba(142, 158, 171, 1)"></path><path d="M230 158.9 L230 308.9" stroke-width="15" stroke="rgba(142, 158, 171, 1)"></path><path d="M230 331.4 L230 361.4" stroke-width="15" stroke="rgba(203, 180, 237, 1)"></path><path d="M230 383.9 L230 401.1" stroke-width="15" stroke="rgba(208, 209, 209, 1)"></path><path d="M250 161.29 L250 236.29" stroke-width="15" stroke="rgba(203, 180, 237, 1)"></path><path d="M250 258.78999999999996 L250 288.78999999999996" stroke-width="15" stroke="rgba(142, 158, 171, 1)"></path><path d="M250 311.28999999999996 L250 398.71" stroke-width="15" stroke="rgba(142, 158, 171, 1)"></path><path d="M270 164.35 L270 395.65" stroke-width="15" stroke="rgba(208, 209, 209, 1)"></path><path d="M290 203.75 L290 308.75" stroke-width="15" stroke="rgba(203, 180, 237, 1)"></path><path d="M290 331.25 L290 356.25" stroke-width="15" stroke="rgba(203, 180, 237, 1)"></path><path d="M310 75.76 L310 225.76" stroke-width="15" stroke="rgba(203, 180, 237, 1)"></path><path d="M310 248.26 L310 413.26" stroke-width="15" stroke="rgba(208, 209, 209, 1)"></path><path d="M310 435.76 L310 484.24" stroke-width="15" stroke="rgba(203, 180, 237, 1)"></path><path d="M330 126.74 L330 433.26" stroke-width="15" stroke="rgba(203, 180, 237, 1)"></path><path d="M350 110.56 L350 305.56" stroke-width="15" stroke="rgba(203, 180, 237, 1)"></path><path d="M350 328.06 L350 388.06" stroke-width="15" stroke="rgba(142, 158, 171, 1)"></path><path d="M350 410.56 L350 449.44" stroke-width="15" stroke="rgba(203, 180, 237, 1)"></path><path d="M370 91.93 L370 106.93" stroke-width="15" stroke="rgba(142, 158, 171, 1)"></path><path d="M370 129.43 L370 468.07" stroke-width="15" stroke="rgba(208, 209, 209, 1)"></path><path d="M390 55.28 L390 145.28" stroke-width="15" stroke="rgba(208, 209, 209, 1)"></path><path d="M390 167.78 L390 504.73" stroke-width="15" stroke="rgba(208, 209, 209, 1)"></path><path d="M410 201.22 L410 216.22" stroke-width="15" stroke="rgba(203, 180, 237, 1)"></path><path d="M410 238.72 L410 298.72" stroke-width="15" stroke="rgba(203, 180, 237, 1)"></path><path d="M410 321.22 L410 358.77" stroke-width="15" stroke="rgba(208, 209, 209, 1)"></path><path d="M430 40.43 L430 130.43" stroke-width="15" stroke="rgba(142, 158, 171, 1)"></path><path d="M430 152.93 L430 272.93" stroke-width="15" stroke="rgba(208, 209, 209, 1)"></path><path d="M430 295.43 L430 519.57" stroke-width="15" stroke="rgba(208, 209, 209, 1)"></path><path d="M450 219.52 L450 264.52" stroke-width="15" stroke="rgba(142, 158, 171, 1)"></path><path d="M450 287.02 L450 302.02" stroke-width="15" stroke="rgba(203, 180, 237, 1)"></path><path d="M450 324.52 L450 340.48" stroke-width="15" stroke="rgba(203, 180, 237, 1)"></path><path d="M470 110.17 L470 449.83" stroke-width="15" stroke="rgba(203, 180, 237, 1)"></path><path d="M490 183.38 L490 243.38" stroke-width="15" stroke="rgba(208, 209, 209, 1)"></path><path d="M490 265.88 L490 295.88" stroke-width="15" stroke="rgba(208, 209, 209, 1)"></path><path d="M490 318.38 L490 376.62" stroke-width="15" stroke="rgba(208, 209, 209, 1)"></path><path d="M510 169 L510 259" stroke-width="15" stroke="rgba(208, 209, 209, 1)"></path><path d="M510 281.5 L510 391" stroke-width="15" stroke="rgba(203, 180, 237, 1)"></path><path d="M530 235.31 L530 324.69" stroke-width="15" stroke="rgba(208, 209, 209, 1)"></path><path d="M550 162.99 L550 397.01" stroke-width="15" stroke="rgba(203, 180, 237, 1)"></path><path d="M570 82.81 L570 352.81" stroke-width="15" stroke="rgba(142, 158, 171, 1)"></path><path d="M570 375.31 L570 477.19" stroke-width="15" stroke="rgba(203, 180, 237, 1)"></path><path d="M590 48.59 L590 93.59" stroke-width="15" stroke="rgba(208, 209, 209, 1)"></path><path d="M590 116.09 L590 511.40999999999997" stroke-width="15" stroke="rgba(203, 180, 237, 1)"></path><path d="M610 147.9 L610 412.11" stroke-width="15" stroke="rgba(142, 158, 171, 1)"></path><path d="M630 232.69 L630 247.69" stroke-width="15" stroke="rgba(142, 158, 171, 1)"></path><path d="M630 270.19 L630 285.19" stroke-width="15" stroke="rgba(142, 158, 171, 1)"></path><path d="M630 307.69 L630 327.31" stroke-width="15" stroke="rgba(208, 209, 209, 1)"></path><path d="M650 112.71 L650 382.71" stroke-width="15" stroke="rgba(203, 180, 237, 1)"></path><path d="M650 405.21 L650 447.29" stroke-width="15" stroke="rgba(142, 158, 171, 1)"></path><path d="M670 236.84 L670 251.84" stroke-width="15" stroke="rgba(203, 180, 237, 1)"></path><path d="M670 274.34000000000003 L670 323.17" stroke-width="15" stroke="rgba(142, 158, 171, 1)"></path><path d="M690 119.57 L690 374.57" stroke-width="15" stroke="rgba(203, 180, 237, 1)"></path><path d="M690 397.07 L690 440.43" stroke-width="15" stroke="rgba(208, 209, 209, 1)"></path><path d="M710 54.5 L710 354.5" stroke-width="15" stroke="rgba(203, 180, 237, 1)"></path><path d="M710 377 L710 505.5" stroke-width="15" stroke="rgba(142, 158, 171, 1)"></path><path d="M730 138.3 L730 318.3" stroke-width="15" stroke="rgba(208, 209, 209, 1)"></path><path d="M730 340.8 L730 370.8" stroke-width="15" stroke="rgba(142, 158, 171, 1)"></path><path d="M730 393.3 L730 421.7" stroke-width="15" stroke="rgba(208, 209, 209, 1)"></path><path d="M750 117.04 L750 252.04000000000002" stroke-width="15" stroke="rgba(203, 180, 237, 1)"></path><path d="M750 274.54 L750 442.96" stroke-width="15" stroke="rgba(203, 180, 237, 1)"></path><path d="M770 224.83 L770 239.83" stroke-width="15" stroke="rgba(208, 209, 209, 1)"></path><path d="M770 262.33000000000004 L770 277.33000000000004" stroke-width="15" stroke="rgba(203, 180, 237, 1)"></path><path d="M770 299.83000000000004 L770 335.17" stroke-width="15" stroke="rgba(142, 158, 171, 1)"></path><path d="M790 230.02 L790 260.02" stroke-width="15" stroke="rgba(142, 158, 171, 1)"></path><path d="M790 282.52 L790 329.98" stroke-width="15" stroke="rgba(142, 158, 171, 1)"></path><path d="M810 161.18 L810 398.82" stroke-width="15" stroke="rgba(203, 180, 237, 1)"></path><path d="M830 219.2 L830 279.2" stroke-width="15" stroke="rgba(203, 180, 237, 1)"></path><path d="M830 301.7 L830 340.8" stroke-width="15" stroke="rgba(208, 209, 209, 1)"></path><path d="M850 45.86 L850 330.86" stroke-width="15" stroke="rgba(142, 158, 171, 1)"></path><path d="M850 353.36 L850 398.36" stroke-width="15" stroke="rgba(203, 180, 237, 1)"></path><path d="M850 420.86 L850 514.14" stroke-width="15" stroke="rgba(208, 209, 209, 1)"></path><path d="M870 201.22 L870 261.22" stroke-width="15" stroke="rgba(142, 158, 171, 1)"></path><path d="M870 283.72 L870 298.72" stroke-width="15" stroke="rgba(208, 209, 209, 1)"></path><path d="M870 321.22 L870 358.77" stroke-width="15" stroke="rgba(142, 158, 171, 1)"></path><path d="M890 237.47 L890 322.52" stroke-width="15" stroke="rgba(208, 209, 209, 1)"></path><path d="M910 196.69 L910 363.31" stroke-width="15" stroke="rgba(208, 209, 209, 1)"></path><path d="M930 204.19 L930 219.19" stroke-width="15" stroke="rgba(208, 209, 209, 1)"></path><path d="M930 241.69 L930 355.81" stroke-width="15" stroke="rgba(203, 180, 237, 1)"></path><path d="M950 251.91 L950 308.1" stroke-width="15" stroke="rgba(203, 180, 237, 1)"></path><path d="M970 165.87 L970 270.87" stroke-width="15" stroke="rgba(142, 158, 171, 1)"></path><path d="M970 293.37 L970 394.13" stroke-width="15" stroke="rgba(142, 158, 171, 1)"></path><path d="M990 202.19 L990 262.19" stroke-width="15" stroke="rgba(203, 180, 237, 1)"></path><path d="M990 284.69 L990 357.81" stroke-width="15" stroke="rgba(142, 158, 171, 1)"></path><path d="M1010 200.21 L1010 290.21000000000004" stroke-width="15" stroke="rgba(142, 158, 171, 1)"></path><path d="M1010 312.71000000000004 L1010 359.79" stroke-width="15" stroke="rgba(203, 180, 237, 1)"></path><path d="M1030 61.33 L1030 451.33" stroke-width="15" stroke="rgba(203, 180, 237, 1)"></path><path d="M1030 473.83 L1030 498.67" stroke-width="15" stroke="rgba(203, 180, 237, 1)"></path><path d="M1050 244.66 L1050 315.33" stroke-width="15" stroke="rgba(208, 209, 209, 1)"></path><path d="M1070 179.07 L1070 254.07" stroke-width="15" stroke="rgba(203, 180, 237, 1)"></path><path d="M1070 276.57 L1070 306.57" stroke-width="15" stroke="rgba(203, 180, 237, 1)"></path><path d="M1070 329.07 L1070 380.93" stroke-width="15" stroke="rgba(142, 158, 171, 1)"></path><path d="M1090 140 L1090 200" stroke-width="15" stroke="rgba(208, 209, 209, 1)"></path><path d="M1090 222.5 L1090 252.5" stroke-width="15" stroke="rgba(208, 209, 209, 1)"></path><path d="M1090 275 L1090 420" stroke-width="15" stroke="rgba(203, 180, 237, 1)"></path><path d="M1110 179.43 L1110 380.57" stroke-width="15" stroke="rgba(208, 209, 209, 1)"></path><path d="M1130 71.94 L1130 236.94" stroke-width="15" stroke="rgba(142, 158, 171, 1)"></path><path d="M1130 259.44 L1130 488.06" stroke-width="15" stroke="rgba(208, 209, 209, 1)"></path><path d="M1150 250.78 L1150 309.23" stroke-width="15" stroke="rgba(208, 209, 209, 1)"></path><path d="M1170 107.56 L1170 257.56" stroke-width="15" stroke="rgba(142, 158, 171, 1)"></path><path d="M1170 280.06 L1170 370.06" stroke-width="15" stroke="rgba(208, 209, 209, 1)"></path><path d="M1170 392.56 L1170 452.44" stroke-width="15" stroke="rgba(142, 158, 171, 1)"></path><path d="M1190 204.85 L1190 234.85" stroke-width="15" stroke="rgba(208, 209, 209, 1)"></path><path d="M1190 257.35 L1190 355.15" stroke-width="15" stroke="rgba(203, 180, 237, 1)"></path><path d="M1210 183.83 L1210 258.83000000000004" stroke-width="15" stroke="rgba(142, 158, 171, 1)"></path><path d="M1210 281.33000000000004 L1210 311.33000000000004" stroke-width="15" stroke="rgba(208, 209, 209, 1)"></path><path d="M1210 333.83000000000004 L1210 376.17" stroke-width="15" stroke="rgba(208, 209, 209, 1)"></path><path d="M1230 164.75 L1230 299.75" stroke-width="15" stroke="rgba(142, 158, 171, 1)"></path><path d="M1230 322.25 L1230 395.25" stroke-width="15" stroke="rgba(208, 209, 209, 1)"></path><path d="M1250 151.59 L1250 408.4" stroke-width="15" stroke="rgba(142, 158, 171, 1)"></path><path d="M1270 164.16 L1270 239.16" stroke-width="15" stroke="rgba(142, 158, 171, 1)"></path><path d="M1270 261.65999999999997 L1270 395.85" stroke-width="15" stroke="rgba(142, 158, 171, 1)"></path><path d="M1290 200.91 L1290 359.09" stroke-width="15" stroke="rgba(208, 209, 209, 1)"></path><path d="M1310 71.84 L1310 341.84000000000003" stroke-width="15" stroke="rgba(208, 209, 209, 1)"></path><path d="M1310 364.34000000000003 L1310 409.34000000000003" stroke-width="15" stroke="rgba(208, 209, 209, 1)"></path><path d="M1310 431.84000000000003 L1310 488.15" stroke-width="15" stroke="rgba(203, 180, 237, 1)"></path><path d="M1330 68.25 L1330 278.25" stroke-width="15" stroke="rgba(208, 209, 209, 1)"></path><path d="M1330 300.75 L1330 345.75" stroke-width="15" stroke="rgba(142, 158, 171, 1)"></path><path d="M1330 368.25 L1330 491.75" stroke-width="15" stroke="rgba(203, 180, 237, 1)"></path><path d="M1350 208.31 L1350 223.31" stroke-width="15" stroke="rgba(142, 158, 171, 1)"></path><path d="M1350 245.81 L1350 260.81" stroke-width="15" stroke="rgba(203, 180, 237, 1)"></path><path d="M1350 283.31 L1350 351.69" stroke-width="15" stroke="rgba(203, 180, 237, 1)"></path></g></g><defs><mask id="SvgjsMask1327"><rect width="1440" height="560" fill="#ffffff"></rect></mask></defs></svg>