<?xml version="1.0" standalone="no"?>
<svg xmlns:xlink="http://www.w3.org/1999/xlink" id="wave" style="transform:rotate(180deg); transition: 0.3s" viewBox="0 0 1440 100" version="1.1" xmlns="http://www.w3.org/2000/svg"><defs><linearGradient id="sw-gradient-0" x1="0" x2="0" y1="1" y2="0"><stop stop-color="rgba(142, 158, 171, 1)" offset="0%"/><stop stop-color="rgba(238, 242, 243, 1)" offset="100%"/></linearGradient></defs><path style="transform:translate(0, 0px); opacity:1" fill="url(#sw-gradient-0)" d="M0,80L10,68.3C20,57,40,33,60,35C80,37,100,63,120,73.3C140,83,160,77,180,66.7C200,57,220,43,240,31.7C260,20,280,10,300,15C320,20,340,40,360,45C380,50,400,40,420,33.3C440,27,460,23,480,30C500,37,520,53,540,58.3C560,63,580,57,600,46.7C620,37,640,23,660,16.7C680,10,700,10,720,16.7C740,23,760,37,780,41.7C800,47,820,43,840,45C860,47,880,53,900,53.3C920,53,940,47,960,50C980,53,1000,67,1020,63.3C1040,60,1060,40,1080,38.3C1100,37,1120,53,1140,58.3C1160,63,1180,57,1200,60C1220,63,1240,77,1260,83.3C1280,90,1300,90,1320,78.3C1340,67,1360,43,1380,41.7C1400,40,1420,60,1430,70L1440,80L1440,100L1430,100C1420,100,1400,100,1380,100C1360,100,1340,100,1320,100C1300,100,1280,100,1260,100C1240,100,1220,100,1200,100C1180,100,1160,100,1140,100C1120,100,1100,100,1080,100C1060,100,1040,100,1020,100C1000,100,980,100,960,100C940,100,920,100,900,100C880,100,860,100,840,100C820,100,800,100,780,100C760,100,740,100,720,100C700,100,680,100,660,100C640,100,620,100,600,100C580,100,560,100,540,100C520,100,500,100,480,100C460,100,440,100,420,100C400,100,380,100,360,100C340,100,320,100,300,100C280,100,260,100,240,100C220,100,200,100,180,100C160,100,140,100,120,100C100,100,80,100,60,100C40,100,20,100,10,100L0,100Z"/></svg>