<?xml version="1.0" standalone="no"?>
<svg xmlns:xlink="http://www.w3.org/1999/xlink" id="wave" style="transform:rotate(180deg); transition: 0.3s" viewBox="0 0 1440 100" version="1.1" xmlns="http://www.w3.org/2000/svg"><defs><linearGradient id="sw-gradient-0" x1="0" x2="0" y1="1" y2="0"><stop stop-color="rgba(142, 158, 171, 1)" offset="0%"/><stop stop-color="rgba(238, 242, 243, 1)" offset="100%"/></linearGradient></defs><path style="transform:translate(0, 0px); opacity:1" fill="url(#sw-gradient-0)" d="M0,70L26.7,73.3C53.3,77,107,83,160,80C213.3,77,267,63,320,63.3C373.3,63,427,77,480,83.3C533.3,90,587,90,640,85C693.3,80,747,70,800,68.3C853.3,67,907,73,960,73.3C1013.3,73,1067,67,1120,66.7C1173.3,67,1227,73,1280,78.3C1333.3,83,1387,87,1440,76.7C1493.3,67,1547,43,1600,33.3C1653.3,23,1707,27,1760,25C1813.3,23,1867,17,1920,25C1973.3,33,2027,57,2080,60C2133.3,63,2187,47,2240,35C2293.3,23,2347,17,2400,15C2453.3,13,2507,17,2560,23.3C2613.3,30,2667,40,2720,41.7C2773.3,43,2827,37,2880,35C2933.3,33,2987,37,3040,46.7C3093.3,57,3147,73,3200,66.7C3253.3,60,3307,30,3360,30C3413.3,30,3467,60,3520,66.7C3573.3,73,3627,57,3680,48.3C3733.3,40,3787,40,3813,40L3840,40L3840,100L3813.3,100C3786.7,100,3733,100,3680,100C3626.7,100,3573,100,3520,100C3466.7,100,3413,100,3360,100C3306.7,100,3253,100,3200,100C3146.7,100,3093,100,3040,100C2986.7,100,2933,100,2880,100C2826.7,100,2773,100,2720,100C2666.7,100,2613,100,2560,100C2506.7,100,2453,100,2400,100C2346.7,100,2293,100,2240,100C2186.7,100,2133,100,2080,100C2026.7,100,1973,100,1920,100C1866.7,100,1813,100,1760,100C1706.7,100,1653,100,1600,100C1546.7,100,1493,100,1440,100C1386.7,100,1333,100,1280,100C1226.7,100,1173,100,1120,100C1066.7,100,1013,100,960,100C906.7,100,853,100,800,100C746.7,100,693,100,640,100C586.7,100,533,100,480,100C426.7,100,373,100,320,100C266.7,100,213,100,160,100C106.7,100,53,100,27,100L0,100Z"/></svg>