<?xml version="1.0" encoding="utf-8"?><svg xmlns="http://www.w3.org/2000/svg" xmlns:xlink="http://www.w3.org/1999/xlink" width="1920" height="267" preserveAspectRatio="xMidYMid" viewBox="0 0 1920 267" style="z-index:1;margin-right:-2px;display:block;background-repeat-y:initial;background-repeat-x:initial;background-color:rgba(225, 225, 225, 0);animation-play-state:paused" ><g transform="translate(960,133.5) scale(1,1) translate(-960,-133.5)" style="transform:matrix(1, 0, 0, 1, 0, 0);animation-play-state:paused" ><linearGradient id="lg-0.07329229790395009" x1="0" x2="1" y1="0" y2="0" style="animation-play-state:paused" ><stop stop-color="#0b1d27" offset="0" style="animation-play-state:paused" ></stop>

  
<stop stop-color="#bbcedd" offset="1" style="animation-play-state:paused" ></stop></linearGradient>
<path d="M 0 0 L 0 80.3128 Q 160 145.324 320 128.53 T 640 107.906 T 960 86.8547 T 1280 63.3327 T 1600 47.444 T 1920 49.4751 L 1920 0 Z" fill="url(#lg-0.07329229790395009)" opacity="0.4" style="opacity:0.4;animation-play-state:paused" ></path>
<path d="M 0 0 L 0 113.38 Q 160 132.042 320 95.1824 T 640 70.2898 T 960 53.0846 T 1280 66.3792 T 1600 24.0061 T 1920 35.414 L 1920 0 Z" fill="url(#lg-0.07329229790395009)" opacity="0.4" style="opacity:0.4;animation-play-state:paused" ></path>
<path d="M 0 0 L 0 140.942 Q 160 144.119 320 118.775 T 640 92.4799 T 960 94.2275 T 1280 74.3473 T 1600 44.2189 T 1920 25.9657 L 1920 0 Z" fill="url(#lg-0.07329229790395009)" opacity="0.4" style="opacity:0.4;animation-play-state:paused" ></path>
<path d="M 0 0 L 0 134.992 Q 160 101.14 320 73.6795 T 640 58.8151 T 960 90.6763 T 1280 63.0692 T 1600 75.4259 T 1920 46.7055 L 1920 0 Z" fill="url(#lg-0.07329229790395009)" opacity="0.4" style="opacity:0.4;animation-play-state:paused" ></path>
<path d="M 0 0 L 0 95.5643 Q 160 144.399 320 111.961 T 640 87.1933 T 960 70.3982 T 1280 75.0315 T 1600 61.9568 T 1920 45.7385 L 1920 0 Z" fill="url(#lg-0.07329229790395009)" opacity="0.4" style="opacity:0.4;animation-play-state:paused" ></path>
<path d="M 0 0 L 0 142.56 Q 160 132.279 320 107.328 T 640 85.6301 T 960 57.1943 T 1280 20.0559 T 1600 58.0741 T 1920 14.3519 L 1920 0 Z" fill="url(#lg-0.07329229790395009)" opacity="0.4" style="opacity:0.4;animation-play-state:paused" ></path>
<path d="M 0 0 L 0 137.098 Q 160 133.519 320 103.621 T 640 97.3714 T 960 95.7824 T 1280 57.0811 T 1600 39.1509 T 1920 20.2303 L 1920 0 Z" fill="url(#lg-0.07329229790395009)" opacity="0.4" style="opacity:0.4;animation-play-state:paused" ></path>
<path d="M 0 0 L 0 115.251 Q 160 166.64 320 132.821 T 640 113.788 T 960 82.6699 T 1280 57.4008 T 1600 61.2007 T 1920 6.76434 L 1920 0 Z" fill="url(#lg-0.07329229790395009)" opacity="0.4" style="opacity:0.4;animation-play-state:paused" ></path></g></svg>