<?xml version="1.0" encoding="utf-8"?><svg xmlns="http://www.w3.org/2000/svg" xmlns:xlink="http://www.w3.org/1999/xlink" width="1920" height="267" preserveAspectRatio="xMidYMid" viewBox="0 0 1920 267" style="z-index:1;margin-right:-2px;display:block;background-repeat-y:initial;background-repeat-x:initial;background-color:rgba(255, 255, 255, 0);animation-play-state:paused" ><g transform="translate(960,133.5) scale(1,1) translate(-960,-133.5)" style="transform:matrix(1, 0, 0, 1, 0, 0);animation-play-state:paused" ><linearGradient id="lg-0.7274123512992328" x1="0" x2="1" y1="0" y2="0" style="animation-play-state:paused" ><stop stop-color="#ff00ff" offset="0" style="animation-play-state:paused" ></stop>

  
<stop stop-color="#00ffff" offset="1" style="animation-play-state:paused" ></stop></linearGradient>
<path d="M 0 0 L 0 204.113 Q 192 164.078 384 141.639 T 768 91.1849 T 1152 68.0515 T 1536 86.8675 T 1920 63.1744 L 1920 0 Z" fill="url(#lg-0.7274123512992328)" opacity="0.4" style="opacity:0.4;animation-play-state:paused" ></path>
<path d="M 0 0 L 0 163.071 Q 192 153.024 384 108.854 T 768 112.729 T 1152 112.416 T 1536 74.9941 T 1920 -26.6416 L 1920 0 Z" fill="url(#lg-0.7274123512992328)" opacity="0.4" style="opacity:0.4;animation-play-state:paused" ></path>
<path d="M 0 0 L 0 128.477 Q 192 162.238 384 135.87 T 768 61.6465 T 1152 29.0428 T 1536 -1.19041 T 1920 -22.6869 L 1920 0 Z" fill="url(#lg-0.7274123512992328)" opacity="0.4" style="opacity:0.4;animation-play-state:paused" ></path>
<path d="M 0 0 L 0 150.855 Q 192 205.346 384 174.717 T 768 116.419 T 1152 113.642 T 1536 94.6742 T 1920 59.2395 L 1920 0 Z" fill="url(#lg-0.7274123512992328)" opacity="0.4" style="opacity:0.4;animation-play-state:paused" ></path>
<path d="M 0 0 L 0 146.076 Q 192 158.897 384 137.767 T 768 87.7929 T 1152 101.037 T 1536 14.1016 T 1920 31.8862 L 1920 0 Z" fill="url(#lg-0.7274123512992328)" opacity="0.4" style="opacity:0.4;animation-play-state:paused" ></path></g></svg>